<svg version="1.1" xmlns="http://www.w3.org/2000/svg" xmlns:xlink="http://www.w3.org/1999/xlink" width="426.98" height="503.19977" viewBox="-22.5,-17.63545,426.98,503.19977"><g transform="translate(-49.01,51.53216)"><g data-paper-data="{&quot;isPaintingLayer&quot;:true}" fill="#000000" fill-rule="nonzero" stroke-linejoin="miter" stroke-miterlimit="10" stroke-dasharray="" stroke-dashoffset="0" style="mix-blend-mode: normal"><path d="M430.99,78.19882c0,6.00633 -9.80333,9.27467 -29.41333,15.81133l-352.56667,117.522v-243.543c0,-10.55167 0,-15.82767 3.46067,-18.322c3.46067,-2.49467 8.466,-0.826 18.47633,2.51067l330.62967,110.20967c19.61,6.53667 29.41333,9.805 29.41333,15.81133z" stroke="none" stroke-width="1" stroke-linecap="butt"/><path d="M49.01,211.53216v-243.543c0,-10.55167 0,-15.82767 3.46067,-18.322c3.46067,-2.49467 8.466,-0.826 18.47633,2.51067l330.62967,110.20967c19.61,6.53667 29.41333,9.805 29.41333,15.81133c0,6.00633 -9.80333,9.27467 -29.41333,15.81133zM49.01,211.53216v166.66667v33.33333" stroke="#000000" stroke-width="45" stroke-linecap="round"/></g></g></svg>