<?xml version="1.0" encoding="UTF-8" standalone="no"?> <svg xmlns="http://www.w3.org/2000/svg" xmlns:xlink="http://www.w3.org/1999/xlink" xmlns:serif="http://www.serif.com/" width="100%" height="100%" viewBox="0 0 212 54" version="1.1" xml:space="preserve" style="fill-rule:evenodd;clip-rule:evenodd;stroke-linejoin:round;stroke-miterlimit:2;"><rect id="Artboard1" x="0" y="0" width="211.407" height="53.051" style="fill:none;"></rect><g id="Artboard11" serif:id="Artboard1"><g><path d="M28.982,31.095c-0.832,-0.829 -2.535,-2.54 -5.165,-5.245c-8.184,-8.419 -20.675,-14.382 -20.675,-14.382l22.151,31.145l3.689,-11.518Z" style="fill:#fff;fill-rule:nonzero;"></path><path d="M47.712,30.628c-1.321,0.027 -2.853,-0.298 -3.997,-0.408c-1.941,-0.186 -3.133,0.897 -3.133,0.897l-1.517,9.015c4.956,-2.904 3.174,-4.835 6.139,-6.491c2.963,-1.656 10.186,-3.163 10.186,-3.163c0,-0 -5.772,0.111 -7.678,0.15Z" style="fill:#fff;fill-rule:nonzero;"></path><path d="M38.872,2.659l-9.325,29.112l-3.69,11.517l-8.936,7.104l9.627,-4.412l0.449,-0.205l-0,-0.001c3.818,-1.783 6.174,-5.284 7.018,-6.618c0.819,-1.294 1.487,-2.681 2.016,-4.119c0.073,-0.199 0.338,-0.978 0.443,-1.318c-0.804,0.417 -2.293,1.204 -3.434,1.822c-0.848,0.459 -2.703,1.522 -2.275,2.749c0.12,-0.89 1.173,-1.305 1.873,-0.758c0.708,0.553 0.545,1.631 -0.034,2.177c-1.45,1.365 -3.678,0.5 -3.707,-1.807c-0.048,-3.917 5.97,-4.856 7.944,-7.125c-0.064,-0.914 -0.322,-1.98 -0.957,-2.676c-0.629,-0.69 -1.846,-0.861 -2.38,0.054c1.095,-0.47 2.298,0.549 2.031,1.706c-0.282,1.217 -1.717,1.527 -2.678,0.893c-2.402,-1.585 -0.519,-5.138 2.05,-4.907c2.937,0.264 3.77,3.844 3.58,6.241c-0.225,2.833 -1.102,5.909 -2.621,8.352c-0.362,0.582 -0.779,1.204 -1.237,1.838l3.65,-1.673l1.479,-8.831c0,0 0.289,-1.759 1.366,-8.085c1.663,-9.762 -2.252,-21.03 -2.252,-21.03Z" style="fill:#fff;fill-rule:nonzero;"></path><path d="M66.625,30.238l1.288,0l-0,9.472l-1.167,-0l-6.332,-7.295l0,7.295l-1.275,-0l0,-9.472l1.099,0l6.387,7.357l-0,-7.357Z" style="fill:#fff;fill-rule:nonzero;"></path><path d="M76.04,35.696l-1.528,-3.431l-1.418,3.431l2.946,-0Zm-1.993,-5.512l0.953,-0l4.247,9.526l-1.388,-0l-1.262,-2.807l-4.041,-0l-1.184,2.807l-1.393,-0l4.068,-9.526Z" style="fill:#fff;fill-rule:nonzero;"></path><path d="M85.539,30.238l1.646,0l-3.498,4.461l-0,5.011l-1.39,-0l-0,-5.011l-3.499,-4.461l1.637,0l2.535,3.265l2.569,-3.265Z" style="fill:#fff;fill-rule:nonzero;"></path><path d="M89.312,30.238l1.356,0l0,8.238l4.265,-0l-0,1.234l-5.621,-0l0,-9.472Z" style="fill:#fff;fill-rule:nonzero;"></path><path d="M102.219,35.696l-1.528,-3.431l-1.417,3.431l2.945,-0Zm-1.992,-5.512l0.953,-0l4.247,9.526l-1.388,-0l-1.263,-2.807l-4.041,-0l-1.183,2.807l-1.394,-0l4.069,-9.526Z" style="fill:#fff;fill-rule:nonzero;"></path><path d="M115.073,30.238l1.288,0l0,9.472l-1.166,-0l-6.333,-7.295l0,7.295l-1.274,-0l0,-9.472l1.098,0l6.387,7.357l0,-7.357Z" style="fill:#fff;fill-rule:nonzero;"></path><path d="M122.536,31.445l-1.695,-0l0,7.044l1.736,0c0.678,0 1.204,-0.046 1.58,-0.139c0.375,-0.092 0.688,-0.21 0.939,-0.352c0.251,-0.142 0.48,-0.317 0.688,-0.526c0.669,-0.678 1.003,-1.534 1.003,-2.569c0,-1.017 -0.343,-1.847 -1.03,-2.489c-0.253,-0.239 -0.544,-0.436 -0.871,-0.589c-0.328,-0.154 -0.639,-0.256 -0.933,-0.306c-0.294,-0.049 -0.766,-0.074 -1.417,-0.074Zm-3.051,8.251l0,-9.458l3.194,0c1.288,0 2.307,0.193 3.057,0.58c0.751,0.386 1.347,0.955 1.79,1.705c0.443,0.75 0.665,1.568 0.665,2.454c-0,0.633 -0.122,1.239 -0.366,1.817c-0.244,0.579 -0.592,1.087 -1.045,1.526c-0.461,0.452 -0.996,0.793 -1.606,1.024c-0.357,0.14 -0.685,0.234 -0.983,0.281c-0.299,0.048 -0.868,0.071 -1.709,0.071l-2.997,0Z" style="fill:#fff;fill-rule:nonzero;"></path><path d="M145.101,37.499l0,1.492c-0.994,0.542 -2.143,0.814 -3.444,0.814c-1.058,-0 -1.955,-0.213 -2.692,-0.638c-0.736,-0.425 -1.32,-1.01 -1.749,-1.756c-0.43,-0.746 -0.644,-1.552 -0.644,-2.42c-0,-1.379 0.491,-2.538 1.474,-3.479c0.984,-0.94 2.196,-1.41 3.638,-1.41c0.994,0 2.099,0.26 3.315,0.78l0,1.458c-1.107,-0.633 -2.19,-0.95 -3.247,-0.95c-1.085,0 -1.986,0.343 -2.702,1.028c-0.717,0.684 -1.075,1.542 -1.075,2.573c0,1.04 0.353,1.893 1.058,2.563c0.705,0.669 1.607,1.003 2.705,1.003c1.148,-0 2.269,-0.352 3.363,-1.058Z" style="fill:#fff;fill-rule:nonzero;"></path><path d="M153.276,31.377c-1.084,-0 -1.974,0.339 -2.672,1.017c-0.698,0.678 -1.047,1.544 -1.047,2.597c0,1.021 0.35,1.871 1.05,2.549c0.7,0.678 1.576,1.017 2.628,1.017c1.057,-0 1.939,-0.346 2.645,-1.037c0.707,-0.692 1.061,-1.553 1.061,-2.583c-0,-1.004 -0.354,-1.848 -1.061,-2.533c-0.706,-0.685 -1.575,-1.027 -2.604,-1.027Zm-0.054,-1.288c1.463,-0 2.682,0.463 3.655,1.39c0.974,0.926 1.46,2.088 1.46,3.485c0,1.396 -0.491,2.552 -1.473,3.468c-0.983,0.915 -2.222,1.373 -3.717,1.373c-1.427,-0 -2.616,-0.458 -3.567,-1.373c-0.951,-0.916 -1.426,-2.063 -1.426,-3.441c-0,-1.415 0.478,-2.586 1.436,-3.512c0.958,-0.927 2.168,-1.39 3.632,-1.39Z" style="fill:#fff;fill-rule:nonzero;"></path><path d="M161.81,30.224l1.356,0l0,8.238l4.265,0l0,1.234l-5.621,0l0,-9.472Z" style="fill:#fff;fill-rule:nonzero;"></path><path d="M170.423,30.224l1.356,0l-0,8.238l4.264,0l0,1.234l-5.62,0l-0,-9.472Z" style="fill:#fff;fill-rule:nonzero;"></path><path d="M179.035,30.224l5.37,0l-0,1.207l-4.014,0l-0,2.888l3.878,0l0,1.214l-3.878,0l-0,2.943l4.143,-0l-0,1.207l-5.499,-0l0,-9.459Z" style="fill:#fff;fill-rule:nonzero;"></path><path d="M192.902,35.032l3.179,-0l0,4.013c-1.165,0.507 -2.323,0.76 -3.471,0.76c-1.568,-0 -2.821,-0.458 -3.759,-1.373c-0.938,-0.916 -1.407,-2.045 -1.407,-3.387c-0,-1.414 0.486,-2.592 1.457,-3.533c0.972,-0.94 2.191,-1.41 3.655,-1.41c0.533,0 1.04,0.058 1.519,0.173c0.479,0.115 1.084,0.327 1.817,0.634l-0,1.383c-1.13,-0.655 -2.251,-0.983 -3.363,-0.983c-1.035,0 -1.908,0.353 -2.617,1.058c-0.71,0.705 -1.065,1.571 -1.065,2.597c0,1.075 0.355,1.954 1.065,2.637c0.709,0.683 1.622,1.024 2.739,1.024c0.542,-0 1.191,-0.124 1.946,-0.373l0.129,-0.041l-0,-1.973l-1.824,0l-0,-1.206Z" style="fill:#fff;fill-rule:nonzero;"></path><path d="M199.996,30.224l5.369,0l0,1.207l-4.013,0l-0,2.888l3.878,0l-0,1.214l-3.878,0l-0,2.943l4.142,-0l0,1.207l-5.498,-0l-0,-9.459Z" style="fill:#fff;fill-rule:nonzero;"></path><path d="M62.943,46.073l0,0.636l-1.495,-0l0,3.575l-0.814,-0l0,-3.575l-1.495,-0l0,-0.636l3.804,-0Z" style="fill:#fff;fill-rule:nonzero;"></path><path d="M68.999,46.073l-0,0.636l-1.908,-0l0,1.106l1.826,0l0,0.636l-1.826,-0l0,1.197l1.95,-0l-0,0.636l-2.764,-0l0,-4.211l2.722,-0Z" style="fill:#fff;fill-rule:nonzero;"></path><path d="M77.761,46.073l0,1.944l0.018,0l1.544,-1.944l0.925,-0l-1.567,1.983l2.031,2.228l-1.043,-0l-1.908,-2.068l0,2.068l-0.813,-0l-0,-4.211l0.813,-0Z" style="fill:#fff;fill-rule:nonzero;"></path><path d="M86.704,44.762l-0,0.531l-2.234,0l0,-0.531l2.234,0Zm-1.769,3.879l1.359,-0l-0.711,-1.667l-0.648,1.667Zm1.061,-2.568l1.86,4.211l-0.859,-0l-0.437,-1.025l-1.872,-0l-0.407,1.025l-0.853,-0l1.736,-4.211l0.832,-0Z" style="fill:#fff;fill-rule:nonzero;"></path><path d="M92.398,47.869c0.213,0 0.381,-0.053 0.502,-0.159c0.122,-0.107 0.183,-0.252 0.183,-0.437c-0,-0.194 -0.061,-0.337 -0.181,-0.433c-0.121,-0.095 -0.293,-0.143 -0.516,-0.143l-0.506,-0l0,1.172l0.518,0Zm0.184,-1.796c0.396,-0 0.718,0.11 0.968,0.329c0.249,0.219 0.373,0.504 0.373,0.856c0,0.239 -0.061,0.447 -0.185,0.625c-0.123,0.178 -0.307,0.318 -0.55,0.42c0.134,0.073 0.254,0.171 0.359,0.296c0.104,0.124 0.234,0.334 0.389,0.63c0.257,0.51 0.448,0.862 0.572,1.055l-0.907,-0c-0.062,-0.093 -0.147,-0.24 -0.253,-0.443c-0.233,-0.448 -0.404,-0.75 -0.512,-0.906c-0.109,-0.156 -0.213,-0.267 -0.314,-0.332c-0.1,-0.065 -0.216,-0.098 -0.347,-0.098l-0.295,0l0,1.779l-0.814,-0l0,-4.211l1.516,-0Z" style="fill:#fff;fill-rule:nonzero;"></path><path d="M100.479,46.073l0,0.636l-1.908,-0l0,1.106l1.827,0l-0,0.636l-1.827,-0l0,1.197l1.95,-0l0,0.636l-2.764,-0l0,-4.211l2.722,-0Z" style="fill:#fff;fill-rule:nonzero;"></path><path d="M107.49,46.073l0,0.636l-1.495,-0l0,3.575l-0.813,-0l-0,-3.575l-1.495,-0l-0,-0.636l3.803,-0Z" style="fill:#fff;fill-rule:nonzero;"></path><rect x="110.843" y="46.073" width="0.813" height="4.211" style="fill:#fff;fill-rule:nonzero;"></rect><path d="M120.422,48.18c-0,0.279 0.063,0.53 0.189,0.753c0.127,0.223 0.303,0.396 0.529,0.519c0.226,0.123 0.482,0.184 0.767,0.184c0.433,-0 0.787,-0.136 1.066,-0.407c0.278,-0.272 0.417,-0.621 0.417,-1.049c0,-0.28 -0.063,-0.531 -0.188,-0.755c-0.126,-0.224 -0.302,-0.398 -0.531,-0.52c-0.227,-0.123 -0.484,-0.184 -0.769,-0.184c-0.286,-0 -0.542,0.062 -0.771,0.185c-0.228,0.124 -0.403,0.297 -0.525,0.519c-0.123,0.222 -0.184,0.474 -0.184,0.755Zm1.485,-2.161c0.436,-0 0.829,0.09 1.178,0.269c0.348,0.18 0.626,0.44 0.833,0.778c0.207,0.339 0.31,0.71 0.31,1.114c0,0.394 -0.101,0.759 -0.303,1.095c-0.202,0.337 -0.479,0.598 -0.831,0.784c-0.353,0.186 -0.751,0.279 -1.192,0.279c-0.437,0 -0.833,-0.095 -1.19,-0.284c-0.356,-0.188 -0.634,-0.448 -0.833,-0.779c-0.199,-0.33 -0.298,-0.695 -0.298,-1.095c-0,-0.386 0.099,-0.749 0.298,-1.088c0.199,-0.34 0.473,-0.603 0.823,-0.791c0.349,-0.188 0.751,-0.282 1.205,-0.282Z" style="fill:#fff;fill-rule:nonzero;"></path><path d="M132.852,46.073l2.502,2.939l-0,-2.939l0.796,-0l-0,4.211l-0.7,-0l-2.517,-2.987l0,2.987l-0.795,-0l-0,-4.211l0.714,-0Z" style="fill:#fff;fill-rule:nonzero;"></path><path d="M142.512,46.073l0,0.636l-1.907,-0l0,1.106l1.826,0l-0,0.636l-1.826,-0l0,1.197l1.95,-0l-0,0.636l-2.764,-0l0,-4.211l2.721,-0Z" style="fill:#fff;fill-rule:nonzero;"></path><rect x="146.049" y="46.073" width="0.813" height="4.211" style="fill:#fff;fill-rule:nonzero;"></rect><path d="M151.857,47.869c0.213,0 0.38,-0.053 0.502,-0.159c0.121,-0.107 0.182,-0.252 0.182,-0.437c0,-0.194 -0.06,-0.337 -0.181,-0.433c-0.12,-0.095 -0.292,-0.143 -0.515,-0.143l-0.506,-0l-0,1.172l0.518,0Zm0.184,-1.796c0.395,-0 0.718,0.11 0.967,0.329c0.249,0.219 0.374,0.504 0.374,0.856c-0,0.239 -0.062,0.447 -0.185,0.625c-0.124,0.178 -0.308,0.318 -0.551,0.42c0.135,0.073 0.255,0.171 0.359,0.296c0.105,0.124 0.234,0.334 0.389,0.63c0.257,0.51 0.448,0.862 0.572,1.055l-0.907,-0c-0.062,-0.093 -0.146,-0.24 -0.253,-0.443c-0.233,-0.448 -0.404,-0.75 -0.512,-0.906c-0.109,-0.156 -0.213,-0.267 -0.314,-0.332c-0.1,-0.065 -0.216,-0.098 -0.346,-0.098l-0.295,0l-0,1.779l-0.814,-0l-0,-4.211l1.516,-0Z" style="fill:#fff;fill-rule:nonzero;"></path><path d="M158.289,48.641l1.36,-0l-0.712,-1.667l-0.648,1.667Zm1.061,-2.568l1.86,4.211l-0.859,-0l-0.437,-1.025l-1.872,-0l-0.407,1.025l-0.853,-0l1.736,-4.211l0.832,-0Z" style="fill:#fff;fill-rule:nonzero;"></path><path d="M165.135,46.073l2.501,2.939l-0,-2.939l0.796,-0l-0,4.211l-0.699,-0l-2.517,-2.987l-0,2.987l-0.796,-0l-0,-4.211l0.715,-0Z" style="fill:#fff;fill-rule:nonzero;"></path><path d="M173.146,48.641l1.36,-0l-0.712,-1.667l-0.648,1.667Zm1.061,-2.568l1.86,4.211l-0.859,-0l-0.437,-1.025l-1.872,-0l-0.407,1.025l-0.853,-0l1.736,-4.211l0.832,-0Z" style="fill:#fff;fill-rule:nonzero;"></path></g></g></svg> 