<?xml version="1.0" encoding="UTF-8"?>
<svg version="1.1" xmlns="http://www.w3.org/2000/svg" width="512" height="512">
<path fill="white" d="M0 0 C0.90195602 -0.00701431 1.80391205 -0.01402863 2.73320007 -0.02125549 C5.63208047 -0.03868232 8.53075663 -0.04510887 11.4296875 -0.046875 C12.41955658 -0.04754974 13.40942566 -0.04822449 14.42929077 -0.04891968 C28.9391862 -0.03318338 43.02662729 0.4161495 57.3046875 3.203125 C58.65022705 3.44458252 58.65022705 3.44458252 60.02294922 3.69091797 C83.4342464 7.92717042 105.98624175 15.68707193 127.3046875 26.203125 C128.39716797 26.73607178 128.39716797 26.73607178 129.51171875 27.27978516 C149.97801943 37.3608211 168.5622521 50.74516216 185.3046875 66.203125 C190.13326385 64.34331449 193.25543271 60.32029603 196.70703125 56.63476562 C200.48389419 52.71783999 204.09586298 49.80579763 209.61328125 48.76953125 C215.09687803 48.7594696 219.11726846 49.52069373 223.3046875 53.203125 C227.08991 58.79361477 228.42166875 65.08131708 229.68652344 71.60717773 C229.89193253 72.61801422 230.09734161 73.62885071 230.30897522 74.6703186 C230.98042949 77.99027209 231.63517972 81.31326354 232.2890625 84.63671875 C232.75341221 86.958002 233.21853253 89.27913122 233.68438721 91.60011292 C234.65646325 96.45634753 235.62049852 101.31408781 236.57861328 106.1730957 C237.80444727 112.38740573 239.04819961 118.59796185 240.2977562 124.80753994 C241.25995061 129.59760239 242.21360654 134.38933351 243.16461945 139.18162727 C243.61993986 141.47173512 244.0776504 143.76136914 244.53783417 146.05050468 C245.18054414 149.25528013 245.81195551 152.46208438 246.44042969 155.66967773 C246.63051102 156.60657944 246.82059235 157.54348114 247.01643372 158.5087738 C248.54406705 166.41251993 250.03951346 174.18252099 245.3046875 181.203125 C242.2541677 184.09309113 239.3925124 186.15740235 235.3046875 187.203125 C227.36308127 186.82177536 220.12587551 183.96194869 212.6796875 181.390625 C209.50083932 180.30353628 206.31939363 179.22426833 203.13671875 178.1484375 C202.25420944 177.84992386 201.37170013 177.55141022 200.46244812 177.24385071 C192.81150375 174.67330348 185.12350346 172.22547862 177.42615509 169.79856682 C175.31667009 169.13289576 173.20787 168.46510062 171.0993042 167.79652405 C170.40047371 167.57496863 169.70164322 167.35341322 168.98163605 167.125144 C167.56610293 166.67632029 166.15059087 166.22743015 164.73509979 165.77847385 C161.2023369 164.65915293 157.66783735 163.545964 154.1293335 162.44491577 C150.7479463 161.39267384 147.37144125 160.32598329 143.99784279 159.24904251 C142.13667654 158.65936928 140.27048851 158.08562077 138.40422058 157.51229858 C130.58894759 155.00163842 126.54096023 153.15387349 122.4296875 145.890625 C121.1347582 141.64613452 120.86302258 138.41782844 122.3046875 134.203125 C125.41021956 128.77037041 129.59719586 124.67607526 134.0546875 120.328125 C134.75207031 119.63976562 135.44945312 118.95140625 136.16796875 118.2421875 C137.87572093 116.55782918 139.58798193 114.87834883 141.3046875 113.203125 C139.44183924 109.06504222 136.72227667 106.79641722 133.1796875 104.078125 C132.55715088 103.59730469 131.93461426 103.11648437 131.29321289 102.62109375 C105.52950359 83.06979637 76.05580841 70.10299085 44.3046875 64.203125 C43.34812256 64.01766113 42.39155762 63.83219727 41.40600586 63.64111328 C31.93145147 61.97311556 22.58244327 61.80565787 12.9921875 61.828125 C12.15764038 61.82833649 11.32309326 61.82854797 10.46325684 61.82876587 C-3.57734924 61.86416433 -16.99387595 62.95650345 -30.6953125 66.203125 C-31.89027344 66.47600342 -31.89027344 66.47600342 -33.109375 66.75439453 C-56.8343746 72.30378302 -79.98424036 82.90024396 -99.6953125 97.203125 C-100.70335937 97.92628906 -101.71140625 98.64945312 -102.75 99.39453125 C-143.52662511 129.65298044 -170.11579019 173.5250498 -179.6953125 223.203125 C-179.88802734 224.15034424 -180.08074219 225.09756348 -180.27929688 226.07348633 C-182.55747535 239.09462578 -181.76481401 252.34669295 -181.50341797 265.5090332 C-181.44294795 268.77036683 -181.40748649 272.03125332 -181.375 275.29296875 C-181.34808075 276.28473618 -181.3211615 277.2765036 -181.29342651 278.29832458 C-181.24855611 284.50879663 -182.04370037 288.12952965 -185.6953125 293.203125 C-187.58984375 294.76171875 -187.58984375 294.76171875 -189.5078125 295.640625 C-190.13300781 295.94871094 -190.75820312 296.25679688 -191.40234375 296.57421875 C-198.67495576 298.56892153 -206.41124715 296.30730898 -213.60131836 294.859375 C-215.62181895 294.45532345 -217.64541827 294.0709194 -219.66992188 293.6875 C-236.08596421 290.48153695 -236.08596421 290.48153695 -241.1328125 284.140625 C-242.97793861 280.67178792 -243.81893246 278.06513618 -243.85644531 274.18847656 C-243.86590179 273.3811911 -243.87535828 272.57390564 -243.88510132 271.74215698 C-243.89170273 270.43119553 -243.89170273 270.43119553 -243.8984375 269.09375 C-243.90549713 268.18344025 -243.91255676 267.27313049 -243.91983032 266.3352356 C-244.14825283 228.14161303 -244.14825283 228.14161303 -240.6953125 211.203125 C-240.49131836 210.17703125 -240.28732422 209.1509375 -240.07714844 208.09375 C-235.5229123 185.71369003 -228.69736954 164.73193715 -218.6953125 144.203125 C-218.30472656 143.40132812 -217.91414063 142.59953125 -217.51171875 141.7734375 C-201.60544897 109.5436843 -178.16234078 79.30349143 -149.6953125 57.203125 C-148.4527487 56.2088034 -147.21058825 55.21397762 -145.96875 54.21875 C-120.8417218 34.29604494 -92.37783416 19.52410751 -61.6953125 10.203125 C-60.48319092 9.8328418 -60.48319092 9.8328418 -59.24658203 9.45507812 C-40.21169623 3.76784967 -19.89357475 0.10373429 0 0 Z " transform="translate(243.6953125,-0.203125)"/>
<path d="M0 0 C1.27552734 0.25265625 2.55105469 0.5053125 3.86523438 0.765625 C19.22356229 3.95365363 19.22356229 3.95365363 24.875 9.75 C27.07449403 13.26919046 27.55878529 16.27320278 27.59863281 20.37817383 C27.60808929 21.18538376 27.61754578 21.99259369 27.62728882 22.82426453 C27.63168976 23.69307755 27.6360907 24.56189056 27.640625 25.45703125 C27.64768463 26.36592606 27.65474426 27.27482086 27.66201782 28.21125793 C27.89032076 66.31209852 27.89032076 66.31209852 24.4375 83.25 C24.13150879 84.78914063 24.13150879 84.78914063 23.81933594 86.359375 C19.2650998 108.73943497 12.43955704 129.72118785 2.4375 150.25 C2.04691406 151.05179688 1.65632813 151.85359375 1.25390625 152.6796875 C-14.65236353 184.9094407 -38.09547172 215.14963357 -66.5625 237.25 C-67.8050638 238.2443216 -69.04722425 239.23914738 -70.2890625 240.234375 C-95.4160907 260.15708006 -123.87997834 274.92901749 -154.5625 284.25 C-155.37058105 284.49685547 -156.17866211 284.74371094 -157.01123047 284.99804688 C-176.04616565 290.68529008 -196.36420178 294.34927046 -216.2578125 294.453125 C-217.15967789 294.46018463 -218.06154327 294.46724426 -218.99073792 294.47451782 C-256.86824481 294.70366283 -256.86824481 294.70366283 -273.5625 291.25 C-275.02913086 290.95198486 -275.02913086 290.95198486 -276.52539062 290.64794922 C-321.38965238 281.26020793 -364.96849697 261.69516234 -398.5390625 229.96484375 C-400.54520061 228.04903689 -400.54520061 228.04903689 -403.5625 227.25 C-403.99594727 227.6939209 -404.42939453 228.1378418 -404.87597656 228.59521484 C-406.84951429 230.61041732 -408.83088304 232.61774289 -410.8125 234.625 C-411.49441406 235.32367188 -412.17632812 236.02234375 -412.87890625 236.7421875 C-413.54277344 237.4125 -414.20664062 238.0828125 -414.890625 238.7734375 C-415.4980957 239.39138184 -416.10556641 240.00932617 -416.73144531 240.64599609 C-420.9261234 244.3205341 -424.60503489 244.69843059 -430.02734375 244.5546875 C-434.00127664 244.07708077 -436.59410799 242.91153809 -439.5625 240.25 C-443.31243871 234.66975395 -444.67169018 228.43841063 -445.94433594 221.93774414 C-446.14974503 220.93666122 -446.35515411 219.93557831 -446.56678772 218.90415955 C-447.23816701 215.61667919 -447.89295799 212.32615083 -448.546875 209.03515625 C-449.01123419 206.73629368 -449.47635439 204.43758471 -449.94219971 202.13902283 C-450.91423189 197.32987218 -451.87826716 192.51920886 -452.83642578 187.70727539 C-454.0622631 181.55347238 -455.3060227 175.40346095 -456.5555687 169.25443363 C-457.51780691 164.51071569 -458.47144648 159.76530113 -459.42243195 155.01931572 C-459.87772061 152.75152545 -460.33543046 150.48421982 -460.79564667 148.21742439 C-461.43842648 145.04381062 -462.06981055 141.86813219 -462.69824219 138.69165039 C-462.98336418 137.30032394 -462.98336418 137.30032394 -463.27424622 135.88088989 C-464.58647478 129.15621626 -465.73022451 122.5073368 -463.375 115.9375 C-460.63633252 111.87671719 -457.91322163 109.88401219 -453.5 107.8125 C-443.22250428 106.34428633 -431.98007003 112.01174257 -422.3125 115.3125 C-411.19379917 119.08963857 -400.0459681 122.75236557 -388.84090805 126.26606178 C-386.92809511 126.86646122 -385.01595041 127.46894017 -383.10403442 128.07218933 C-382.47201929 128.27157262 -381.84000416 128.47095591 -381.18883705 128.67638111 C-379.91117509 129.07948885 -378.63353506 129.48266612 -377.35591698 129.8859129 C-374.18014359 130.88702661 -371.00213967 131.88010141 -367.82092285 132.86380005 C-364.22119447 133.977487 -360.62786591 135.11000297 -357.03515625 136.24609375 C-355.95019363 136.57596283 -354.86523102 136.90583191 -353.74739075 137.24569702 C-346.3335428 139.61672984 -342.59524503 141.65881712 -338.6875 148.5625 C-337.3925707 152.80699048 -337.12083508 156.03529656 -338.5625 160.25 C-341.66803206 165.68275459 -345.85500836 169.77704974 -350.3125 174.125 C-351.00988281 174.81335938 -351.70726562 175.50171875 -352.42578125 176.2109375 C-354.13353343 177.89529582 -355.84579443 179.57477617 -357.5625 181.25 C-356.2369982 185.2265054 -353.65179038 186.85155221 -350.4375 189.3125 C-349.80787354 189.79783203 -349.17824707 190.28316406 -348.52954102 190.78320312 C-322.35443426 210.72984709 -293.02613533 224.34052293 -260.5625 230.25 C-259.13200317 230.52602051 -259.13200317 230.52602051 -257.67260742 230.80761719 C-248.19394407 232.47730245 -238.84453111 232.64747715 -229.25 232.625 C-228.41545288 232.62478851 -227.58090576 232.62457703 -226.72106934 232.62435913 C-212.68046326 232.58896067 -199.26393655 231.49662155 -185.5625 228.25 C-184.76585937 228.06808105 -183.96921875 227.88616211 -183.1484375 227.69873047 C-159.4234379 222.14934198 -136.27357214 211.55288104 -116.5625 197.25 C-115.55445313 196.52683594 -114.54640625 195.80367187 -113.5078125 195.05859375 C-72.73118739 164.80014456 -46.14202231 120.9280752 -36.5625 71.25 C-36.36978516 70.30278076 -36.17707031 69.35556152 -35.97851562 68.37963867 C-33.70033715 55.35849922 -34.49299849 42.10643205 -34.75439453 28.9440918 C-34.81486455 25.68275817 -34.85032601 22.42187168 -34.8828125 19.16015625 C-34.92319138 17.67250511 -34.92319138 17.67250511 -34.96438599 16.15480042 C-35.00926051 9.94375877 -34.26535807 6.29735314 -30.5625 1.25 C-21.77021554 -6.09151179 -10.16820705 -2.14393012 0 0 Z " fill="white" transform="translate(484.5625,217.75)"/>
</svg>
